<?xml version="1.0" encoding="UTF-8" standalone="no"?>
<!DOCTYPE svg PUBLIC "-//W3C//DTD SVG 1.1//EN"
 "http://www.w3.org/Graphics/SVG/1.1/DTD/svg11.dtd">
<!-- Generated by graphviz version 3.0.0 (20220226.1711)
 -->
<!-- Title: finite_state_machine Pages: 1 -->
<svg width="2116pt" height="646pt"
 viewBox="0.00 0.00 2115.54 646.50" xmlns="http://www.w3.org/2000/svg" xmlns:xlink="http://www.w3.org/1999/xlink">
<g id="graph0" class="graph" transform="scale(1 1) rotate(0) translate(4 642.5)">
<title>finite_state_machine</title>
<!-- 1 -->
<g id="node1" class="node">
<title>1</title>
<ellipse fill="none" stroke="gray" cx="147.87" cy="-339.5" rx="80.84" ry="80.84"/>
<text text-anchor="middle" x="147.87" y="-376.4" font-family="Times,serif" font-size="12.00" fill="gray">just issued</text>
<text text-anchor="middle" x="147.87" y="-363.4" font-family="Times,serif" font-size="12.00" fill="gray">fan token</text>
<text text-anchor="middle" x="147.87" y="-336.4" font-family="Times,serif" font-size="12.00" fill="gray">no circulating tokens</text>
<text text-anchor="middle" x="147.87" y="-309.4" font-family="Times,serif" font-size="12.00" fill="gray">+ editable</text>
<text text-anchor="middle" x="147.87" y="-296.4" font-family="Times,serif" font-size="12.00" fill="gray">+ mintable</text>
</g>
<!-- 1&#45;&gt;1 -->
<g id="edge2" class="edge">
<title>1&#45;&gt;1</title>
<path fill="none" stroke="gray" d="M141.77,-420.02C142.79,-430.91 144.83,-438.17 147.87,-438.17 149.82,-438.17 151.36,-435.19 152.48,-430.19"/>
<polygon fill="gray" stroke="gray" points="155.98,-430.43 153.97,-420.02 149.05,-429.41 155.98,-430.43"/>
<text text-anchor="middle" x="147.87" y="-441.57" font-family="Times,serif" font-size="12.00" fill="gray">change minter</text>
</g>
<!-- 1&#45;&gt;1 -->
<g id="edge3" class="edge">
<title>1&#45;&gt;1</title>
<path fill="none" stroke="gray" d="M134.24,-419.11C135.02,-440.2 139.56,-456.17 147.87,-456.17 154.75,-456.17 159.05,-445.21 160.76,-429.48"/>
<polygon fill="gray" stroke="gray" points="164.28,-429.33 161.5,-419.11 157.3,-428.84 164.28,-429.33"/>
<text text-anchor="middle" x="147.87" y="-459.57" font-family="Times,serif" font-size="12.00" fill="gray">change authority</text>
</g>
<!-- 1&#45;&gt;1 -->
<g id="edge4" class="edge">
<title>1&#45;&gt;1</title>
<path fill="none" stroke="gray" d="M127.35,-417.67C126.31,-448.45 133.15,-474.17 147.87,-474.17 160.92,-474.17 167.78,-453.95 168.44,-427.91"/>
<polygon fill="gray" stroke="gray" points="171.94,-427.65 168.39,-417.67 164.94,-427.69 171.94,-427.65"/>
<text text-anchor="middle" x="147.87" y="-477.57" font-family="Times,serif" font-size="12.00" fill="gray">change metadata</text>
</g>
<!-- 2 -->
<g id="node2" class="node">
<title>2</title>
<ellipse fill="none" stroke="gray" cx="373.54" cy="-115.5" rx="72" ry="72"/>
<text text-anchor="middle" x="373.54" y="-138.9" font-family="Times,serif" font-size="12.00" fill="gray">some tokens</text>
<text text-anchor="middle" x="373.54" y="-125.9" font-family="Times,serif" font-size="12.00" fill="gray">are circulating</text>
<text text-anchor="middle" x="373.54" y="-98.9" font-family="Times,serif" font-size="12.00" fill="gray">+ editable</text>
<text text-anchor="middle" x="373.54" y="-85.9" font-family="Times,serif" font-size="12.00" fill="gray">+ mintable</text>
</g>
<!-- 1&#45;&gt;2 -->
<g id="edge16" class="edge">
<title>1&#45;&gt;2</title>
<path fill="none" stroke="gray" d="M205.6,-282.68C238.93,-249.3 280.96,-207.21 314.52,-173.61"/>
<polygon fill="gray" stroke="gray" points="317.39,-175.69 321.98,-166.14 312.43,-170.74 317.39,-175.69"/>
<text text-anchor="middle" x="265.04" y="-244.9" font-family="Times,serif" font-size="12.00" fill="gray">mint</text>
</g>
<!-- 3 -->
<g id="node3" class="node">
<title>3</title>
<ellipse fill="none" stroke="gray" cx="589.54" cy="-144.5" rx="72" ry="72"/>
<text text-anchor="middle" x="589.54" y="-161.4" font-family="Times,serif" font-size="12.00" fill="gray">max&#45;supply reached</text>
<text text-anchor="middle" x="589.54" y="-134.4" font-family="Times,serif" font-size="12.00" fill="gray">+ editable</text>
<text text-anchor="middle" x="589.54" y="-121.4" font-family="Times,serif" font-size="12.00" fill="gray">+ mintable</text>
</g>
<!-- 1&#45;&gt;3 -->
<g id="edge21" class="edge">
<title>1&#45;&gt;3</title>
<path fill="none" stroke="gray" d="M162.44,-259.82C180.07,-183.81 218.99,-73.43 301.54,-21.5 355.71,12.59 385.53,0.76 445.54,-21.5 479.49,-34.09 510.8,-58.75 535.4,-82.71"/>
<polygon fill="gray" stroke="gray" points="532.94,-85.2 542.49,-89.77 537.88,-80.24 532.94,-85.2"/>
<text text-anchor="middle" x="373.54" y="-24.9" font-family="Times,serif" font-size="12.00" fill="gray">mint all</text>
</g>
<!-- 5 -->
<g id="node5" class="node">
<title>5</title>
<ellipse fill="none" stroke="gray" cx="1125.54" cy="-504.5" rx="72" ry="72"/>
<text text-anchor="middle" x="1125.54" y="-527.9" font-family="Times,serif" font-size="12.00" fill="gray">minting disabled</text>
<text text-anchor="middle" x="1125.54" y="-514.9" font-family="Times,serif" font-size="12.00" fill="gray">no circulating</text>
<text text-anchor="middle" x="1125.54" y="-487.9" font-family="Times,serif" font-size="12.00" fill="gray">+ editable</text>
<text text-anchor="middle" x="1125.54" y="-474.9" font-family="Times,serif" font-size="12.00" fill="gray">&#45; mintable</text>
</g>
<!-- 1&#45;&gt;5 -->
<g id="edge29" class="edge">
<title>1&#45;&gt;5</title>
<path fill="none" stroke="gray" d="M202.46,-399.31C244.33,-439.25 306.36,-484.5 372.54,-484.5 372.54,-484.5 372.54,-484.5 858.54,-484.5 920.86,-484.5 991.17,-490.02 1043.84,-495.27"/>
<polygon fill="gray" stroke="gray" points="1043.5,-498.75 1053.8,-496.28 1044.21,-491.79 1043.5,-498.75"/>
<text text-anchor="middle" x="589.54" y="-487.9" font-family="Times,serif" font-size="12.00" fill="gray">disable mint</text>
</g>
<!-- 8 -->
<g id="node8" class="node">
<title>8</title>
<ellipse fill="none" stroke="gray" cx="1342.54" cy="-378.5" rx="72" ry="72"/>
<text text-anchor="middle" x="1342.54" y="-401.9" font-family="Times,serif" font-size="12.00" fill="gray">immutable</text>
<text text-anchor="middle" x="1342.54" y="-388.9" font-family="Times,serif" font-size="12.00" fill="gray">no circulating</text>
<text text-anchor="middle" x="1342.54" y="-361.9" font-family="Times,serif" font-size="12.00" fill="gray">&#45; editable</text>
<text text-anchor="middle" x="1342.54" y="-348.9" font-family="Times,serif" font-size="12.00" fill="gray">+ mintable</text>
</g>
<!-- 1&#45;&gt;8 -->
<g id="edge44" class="edge">
<title>1&#45;&gt;8</title>
<path fill="none" stroke="gray" d="M218.63,-378.32C261.65,-398.71 318.72,-419.5 372.54,-419.5 372.54,-419.5 372.54,-419.5 724.54,-419.5 917.26,-419.5 1143.1,-399.34 1260.84,-387.29"/>
<polygon fill="gray" stroke="gray" points="1261.26,-390.76 1270.85,-386.26 1260.55,-383.8 1261.26,-390.76"/>
<text text-anchor="middle" x="723.54" y="-422.9" font-family="Times,serif" font-size="12.00" fill="gray">make it immutable</text>
</g>
<!-- 2&#45;&gt;1 -->
<g id="edge36" class="edge">
<title>2&#45;&gt;1</title>
<path fill="none" stroke="gray" d="M341.08,-179.95C326.11,-206.35 306.46,-235.93 283.54,-258.5 267.78,-274.02 248.49,-287.84 229.49,-299.47"/>
<polygon fill="gray" stroke="gray" points="227.59,-296.53 220.8,-304.66 231.18,-302.54 227.59,-296.53"/>
<text text-anchor="middle" x="265.04" y="-291.9" font-family="Times,serif" font-size="12.00" fill="gray">burn all</text>
</g>
<!-- 2&#45;&gt;2 -->
<g id="edge5" class="edge">
<title>2&#45;&gt;2</title>
<path fill="none" stroke="gray" d="M369.87,-187.52C370.44,-198.24 371.66,-205.5 373.54,-205.5 374.74,-205.5 375.68,-202.52 376.34,-197.56"/>
<polygon fill="gray" stroke="gray" points="379.84,-197.79 377.21,-187.52 372.86,-197.18 379.84,-197.79"/>
<text text-anchor="middle" x="373.54" y="-208.9" font-family="Times,serif" font-size="12.00" fill="gray">change minter</text>
</g>
<!-- 2&#45;&gt;2 -->
<g id="edge6" class="edge">
<title>2&#45;&gt;2</title>
<path fill="none" stroke="gray" d="M365.47,-187.16C365.79,-207.68 368.48,-223.5 373.54,-223.5 377.73,-223.5 380.3,-212.65 381.24,-197.27"/>
<polygon fill="gray" stroke="gray" points="384.74,-197.28 381.61,-187.16 377.74,-197.02 384.74,-197.28"/>
<text text-anchor="middle" x="373.54" y="-226.9" font-family="Times,serif" font-size="12.00" fill="gray">change authority</text>
</g>
<!-- 2&#45;&gt;2 -->
<g id="edge7" class="edge">
<title>2&#45;&gt;2</title>
<path fill="none" stroke="gray" d="M361.5,-186.74C360.67,-216.37 364.68,-241.5 373.54,-241.5 381.36,-241.5 385.41,-221.92 385.68,-196.94"/>
<polygon fill="gray" stroke="gray" points="389.17,-196.71 385.58,-186.74 382.17,-196.77 389.17,-196.71"/>
<text text-anchor="middle" x="373.54" y="-244.9" font-family="Times,serif" font-size="12.00" fill="gray">change metadata</text>
</g>
<!-- 2&#45;&gt;2 -->
<g id="edge19" class="edge">
<title>2&#45;&gt;2</title>
<path fill="none" stroke="gray" d="M358.06,-185.88C355.3,-224.3 360.46,-259.5 373.54,-259.5 385.44,-259.5 390.79,-230.34 389.57,-196.14"/>
<polygon fill="gray" stroke="gray" points="393.05,-195.68 389.02,-185.88 386.06,-196.05 393.05,-195.68"/>
<text text-anchor="middle" x="373.54" y="-262.9" font-family="Times,serif" font-size="12.00" fill="gray">mint</text>
</g>
<!-- 2&#45;&gt;2 -->
<g id="edge25" class="edge">
<title>2&#45;&gt;2</title>
<path fill="none" stroke="gray" d="M355.08,-185.43C349.88,-232.09 356.03,-277.5 373.54,-277.5 389.78,-277.5 396.25,-238.41 392.95,-195.51"/>
<polygon fill="gray" stroke="gray" points="396.43,-195.06 392.01,-185.43 389.46,-195.72 396.43,-195.06"/>
<text text-anchor="middle" x="373.54" y="-280.9" font-family="Times,serif" font-size="12.00" fill="gray">burn</text>
</g>
<!-- 2&#45;&gt;3 -->
<g id="edge20" class="edge">
<title>2&#45;&gt;3</title>
<path fill="none" stroke="gray" d="M445.31,-108.98C463.11,-108.66 482.11,-109.46 499.54,-112.5 503.73,-113.23 507.97,-114.14 512.23,-115.18"/>
<polygon fill="gray" stroke="gray" points="511.58,-118.63 522.15,-117.84 513.4,-111.87 511.58,-118.63"/>
<text text-anchor="middle" x="481.54" y="-115.9" font-family="Times,serif" font-size="12.00" fill="gray">mint all</text>
</g>
<!-- 4 -->
<g id="node4" class="node">
<title>4</title>
<ellipse fill="none" stroke="gray" cx="857.54" cy="-226.5" rx="72" ry="72"/>
<text text-anchor="middle" x="857.54" y="-249.9" font-family="Times,serif" font-size="12.00" fill="gray">minting disabled</text>
<text text-anchor="middle" x="857.54" y="-236.9" font-family="Times,serif" font-size="12.00" fill="gray">some are circulating</text>
<text text-anchor="middle" x="857.54" y="-209.9" font-family="Times,serif" font-size="12.00" fill="gray">+ editable</text>
<text text-anchor="middle" x="857.54" y="-196.9" font-family="Times,serif" font-size="12.00" fill="gray">&#45; mintable</text>
</g>
<!-- 2&#45;&gt;4 -->
<g id="edge30" class="edge">
<title>2&#45;&gt;4</title>
<path fill="none" stroke="gray" d="M401.3,-182.15C424.34,-229.67 462.63,-290.01 517.54,-318.5 605.53,-364.14 718.45,-314.73 789.17,-272.57"/>
<polygon fill="gray" stroke="gray" points="791.28,-275.39 798.01,-267.21 787.65,-269.41 791.28,-275.39"/>
<text text-anchor="middle" x="589.54" y="-339.9" font-family="Times,serif" font-size="12.00" fill="gray">disable mint</text>
</g>
<!-- 7 -->
<g id="node7" class="node">
<title>7</title>
<ellipse fill="none" stroke="gray" cx="1125.54" cy="-226.5" rx="72" ry="72"/>
<text text-anchor="middle" x="1125.54" y="-249.9" font-family="Times,serif" font-size="12.00" fill="gray">immutable</text>
<text text-anchor="middle" x="1125.54" y="-236.9" font-family="Times,serif" font-size="12.00" fill="gray">some are circulating</text>
<text text-anchor="middle" x="1125.54" y="-209.9" font-family="Times,serif" font-size="12.00" fill="gray">&#45; editable</text>
<text text-anchor="middle" x="1125.54" y="-196.9" font-family="Times,serif" font-size="12.00" fill="gray">+ mintable</text>
</g>
<!-- 2&#45;&gt;7 -->
<g id="edge41" class="edge">
<title>2&#45;&gt;7</title>
<path fill="none" stroke="gray" d="M439.79,-86.35C463.74,-77.11 491.39,-68.1 517.54,-63.5 580.57,-52.39 597.81,-57.58 661.54,-63.5 829.93,-79.12 886.83,-52.99 1035.54,-133.5 1049.24,-140.92 1062.08,-151.19 1073.52,-162.22"/>
<polygon fill="gray" stroke="gray" points="1071.28,-164.94 1080.82,-169.55 1076.24,-160 1071.28,-164.94"/>
<text text-anchor="middle" x="723.54" y="-73.9" font-family="Times,serif" font-size="12.00" fill="gray">make it immutable</text>
</g>
<!-- 3&#45;&gt;1 -->
<g id="edge40" class="edge">
<title>3&#45;&gt;1</title>
<path fill="none" stroke="gray" d="M562.6,-211.41C539.79,-260 501.43,-322.18 445.54,-351.5 380.98,-385.36 297.2,-378.15 235.15,-364.9"/>
<polygon fill="gray" stroke="gray" points="235.9,-361.49 225.38,-362.73 234.38,-368.32 235.9,-361.49"/>
<text text-anchor="middle" x="373.54" y="-378.9" font-family="Times,serif" font-size="12.00" fill="gray">burn all</text>
</g>
<!-- 3&#45;&gt;2 -->
<g id="edge24" class="edge">
<title>3&#45;&gt;2</title>
<path fill="none" stroke="gray" d="M518.13,-134.96C497.92,-132.22 475.73,-129.21 454.97,-126.4"/>
<polygon fill="gray" stroke="gray" points="455.29,-122.91 444.91,-125.03 454.35,-129.84 455.29,-122.91"/>
<text text-anchor="middle" x="481.54" y="-135.9" font-family="Times,serif" font-size="12.00" fill="gray">burn</text>
</g>
<!-- 3&#45;&gt;3 -->
<g id="edge8" class="edge">
<title>3&#45;&gt;3</title>
<path fill="none" stroke="gray" d="M583.42,-216.52C584.37,-227.24 586.41,-234.5 589.54,-234.5 591.54,-234.5 593.1,-231.52 594.21,-226.56"/>
<polygon fill="gray" stroke="gray" points="597.7,-226.92 595.66,-216.52 590.77,-225.92 597.7,-226.92"/>
<text text-anchor="middle" x="589.54" y="-237.9" font-family="Times,serif" font-size="12.00" fill="gray">change minter</text>
</g>
<!-- 3&#45;&gt;3 -->
<g id="edge9" class="edge">
<title>3&#45;&gt;3</title>
<path fill="none" stroke="gray" d="M576.08,-215.39C576.51,-236.28 581,-252.5 589.54,-252.5 596.62,-252.5 600.91,-241.37 602.42,-225.69"/>
<polygon fill="gray" stroke="gray" points="605.93,-225.57 603.01,-215.39 598.95,-225.17 605.93,-225.57"/>
<text text-anchor="middle" x="589.54" y="-255.9" font-family="Times,serif" font-size="12.00" fill="gray">change authority</text>
</g>
<!-- 3&#45;&gt;3 -->
<g id="edge10" class="edge">
<title>3&#45;&gt;3</title>
<path fill="none" stroke="gray" d="M569.57,-213.83C567.8,-244.29 574.46,-270.5 589.54,-270.5 602.91,-270.5 609.66,-249.89 609.79,-223.98"/>
<polygon fill="gray" stroke="gray" points="613.28,-223.73 609.51,-213.83 606.29,-223.92 613.28,-223.73"/>
<text text-anchor="middle" x="589.54" y="-273.9" font-family="Times,serif" font-size="12.00" fill="gray">change metadata</text>
</g>
<!-- 3&#45;&gt;4 -->
<g id="edge31" class="edge">
<title>3&#45;&gt;4</title>
<path fill="none" stroke="gray" d="M658.7,-165.51C695.29,-176.79 740.56,-190.74 778.56,-202.46"/>
<polygon fill="gray" stroke="gray" points="777.97,-205.94 788.56,-205.54 780.04,-199.25 777.97,-205.94"/>
<text text-anchor="middle" x="723.54" y="-201.9" font-family="Times,serif" font-size="12.00" fill="gray">disable mint</text>
</g>
<!-- 3&#45;&gt;7 -->
<g id="edge42" class="edge">
<title>3&#45;&gt;7</title>
<path fill="none" stroke="gray" d="M660.68,-131.6C729.93,-121.29 838.4,-111.68 929.54,-132.5 973.45,-142.53 1018.98,-163.77 1055,-183.52"/>
<polygon fill="gray" stroke="gray" points="1053.5,-186.7 1063.94,-188.51 1056.91,-180.58 1053.5,-186.7"/>
<text text-anchor="middle" x="857.54" y="-135.9" font-family="Times,serif" font-size="12.00" fill="gray">make it immutable</text>
</g>
<!-- 4&#45;&gt;4 -->
<g id="edge11" class="edge">
<title>4&#45;&gt;4</title>
<path fill="none" stroke="gray" d="M849.9,-298.16C851.07,-309.08 853.61,-316.5 857.54,-316.5 860.12,-316.5 862.1,-313.3 863.49,-308.02"/>
<polygon fill="gray" stroke="gray" points="866.94,-308.61 865.18,-298.16 860.04,-307.42 866.94,-308.61"/>
<text text-anchor="middle" x="857.54" y="-319.9" font-family="Times,serif" font-size="12.00" fill="gray">burn</text>
</g>
<!-- 4&#45;&gt;4 -->
<g id="edge12" class="edge">
<title>4&#45;&gt;4</title>
<path fill="none" stroke="gray" d="M840.82,-296.61C841.24,-317.88 846.81,-334.5 857.54,-334.5 866.51,-334.5 871.88,-322.88 873.64,-306.65"/>
<polygon fill="gray" stroke="gray" points="877.14,-306.81 874.26,-296.61 870.15,-306.38 877.14,-306.81"/>
<text text-anchor="middle" x="857.54" y="-337.9" font-family="Times,serif" font-size="12.00" fill="gray">change authority</text>
</g>
<!-- 4&#45;&gt;4 -->
<g id="edge13" class="edge">
<title>4&#45;&gt;4</title>
<path fill="none" stroke="gray" d="M832.89,-294.23C830.28,-325.36 838.5,-352.5 857.54,-352.5 874.5,-352.5 882.87,-330.97 882.66,-304.27"/>
<polygon fill="gray" stroke="gray" points="886.16,-304.05 882.2,-294.23 879.16,-304.38 886.16,-304.05"/>
<text text-anchor="middle" x="857.54" y="-355.9" font-family="Times,serif" font-size="12.00" fill="gray">change metadata</text>
</g>
<!-- 4&#45;&gt;5 -->
<g id="edge35" class="edge">
<title>4&#45;&gt;5</title>
<path fill="none" stroke="gray" d="M907.95,-278.13C953.25,-325.48 1020.31,-395.57 1067.79,-445.19"/>
<polygon fill="gray" stroke="gray" points="1065.5,-447.86 1074.95,-452.66 1070.56,-443.02 1065.5,-447.86"/>
<text text-anchor="middle" x="991.54" y="-409.9" font-family="Times,serif" font-size="12.00" fill="gray">burn all</text>
</g>
<!-- 4&#45;&gt;7 -->
<g id="edge43" class="edge">
<title>4&#45;&gt;7</title>
<path fill="none" stroke="gray" d="M929.82,-226.5C964.85,-226.5 1007.21,-226.5 1043.47,-226.5"/>
<polygon fill="gray" stroke="gray" points="1043.52,-230 1053.52,-226.5 1043.52,-223 1043.52,-230"/>
<text text-anchor="middle" x="991.54" y="-229.9" font-family="Times,serif" font-size="12.00" fill="gray">make it immutable</text>
</g>
<!-- 5&#45;&gt;5 -->
<g id="edge14" class="edge">
<title>5&#45;&gt;5</title>
<path fill="none" stroke="gray" d="M1116.31,-576.16C1117.72,-587.08 1120.79,-594.5 1125.54,-594.5 1128.65,-594.5 1131.05,-591.3 1132.73,-586.02"/>
<polygon fill="gray" stroke="gray" points="1136.17,-586.66 1134.77,-576.16 1129.32,-585.24 1136.17,-586.66"/>
<text text-anchor="middle" x="1125.54" y="-597.9" font-family="Times,serif" font-size="12.00" fill="gray">change authority</text>
</g>
<!-- 5&#45;&gt;5 -->
<g id="edge15" class="edge">
<title>5&#45;&gt;5</title>
<path fill="none" stroke="gray" d="M1105.31,-573.83C1105.66,-595.47 1112.41,-612.5 1125.54,-612.5 1136.52,-612.5 1143.03,-600.6 1145.08,-584.05"/>
<polygon fill="gray" stroke="gray" points="1148.59,-584.05 1145.78,-573.83 1141.61,-583.57 1148.59,-584.05"/>
<text text-anchor="middle" x="1125.54" y="-615.9" font-family="Times,serif" font-size="12.00" fill="gray">change metadata</text>
</g>
<!-- 10 -->
<g id="node10" class="node">
<title>10</title>
<ellipse fill="none" stroke="gray" cx="2035.54" cy="-401.5" rx="72" ry="72"/>
<text text-anchor="middle" x="2035.54" y="-431.4" font-family="Times,serif" font-size="12.00" fill="gray">immutable</text>
<text text-anchor="middle" x="2035.54" y="-418.4" font-family="Times,serif" font-size="12.00" fill="gray">minting disabled</text>
<text text-anchor="middle" x="2035.54" y="-405.4" font-family="Times,serif" font-size="12.00" fill="gray">no circulating</text>
<text text-anchor="middle" x="2035.54" y="-378.4" font-family="Times,serif" font-size="12.00" fill="gray">&#45; editable</text>
<text text-anchor="middle" x="2035.54" y="-365.4" font-family="Times,serif" font-size="12.00" fill="gray">&#45; mintable</text>
</g>
<!-- 5&#45;&gt;10 -->
<g id="edge45" class="edge">
<title>5&#45;&gt;10</title>
<path fill="none" stroke="gray" d="M1197.7,-501.51C1239.57,-500.01 1293.56,-498.5 1341.54,-498.5 1341.54,-498.5 1341.54,-498.5 1819.54,-498.5 1872.76,-498.5 1927.36,-473.5 1968.21,-448.88"/>
<polygon fill="gray" stroke="gray" points="1970.3,-451.7 1976.98,-443.48 1966.63,-445.75 1970.3,-451.7"/>
<text text-anchor="middle" x="1580.54" y="-501.9" font-family="Times,serif" font-size="12.00" fill="gray">make it immutable</text>
</g>
<!-- 6 -->
<g id="node6" class="node">
<title>6</title>
<ellipse fill="none" stroke="gray" cx="1818.54" cy="-270.5" rx="72" ry="72"/>
<text text-anchor="middle" x="1818.54" y="-300.4" font-family="Times,serif" font-size="12.00" fill="gray">immutable</text>
<text text-anchor="middle" x="1818.54" y="-287.4" font-family="Times,serif" font-size="12.00" fill="gray">minting disabled</text>
<text text-anchor="middle" x="1818.54" y="-274.4" font-family="Times,serif" font-size="12.00" fill="gray">some are circulating</text>
<text text-anchor="middle" x="1818.54" y="-247.4" font-family="Times,serif" font-size="12.00" fill="gray">&#45; editable</text>
<text text-anchor="middle" x="1818.54" y="-234.4" font-family="Times,serif" font-size="12.00" fill="gray">&#45; mintable</text>
</g>
<!-- 6&#45;&gt;6 -->
<g id="edge26" class="edge">
<title>6&#45;&gt;6</title>
<path fill="none" stroke="gray" d="M1799.64,-340.31C1802.22,-352.23 1808.52,-360.5 1818.54,-360.5 1825.59,-360.5 1830.79,-356.41 1834.16,-349.84"/>
<polygon fill="gray" stroke="gray" points="1837.5,-350.9 1837.44,-340.31 1830.88,-348.62 1837.5,-350.9"/>
<text text-anchor="middle" x="1818.54" y="-363.9" font-family="Times,serif" font-size="12.00" fill="gray">burn</text>
</g>
<!-- 6&#45;&gt;10 -->
<g id="edge37" class="edge">
<title>6&#45;&gt;10</title>
<path fill="none" stroke="gray" d="M1880.58,-307.69C1906.9,-323.73 1937.83,-342.57 1965.03,-359.15"/>
<polygon fill="gray" stroke="gray" points="1963.36,-362.23 1973.72,-364.44 1967.01,-356.25 1963.36,-362.23"/>
<text text-anchor="middle" x="1927.04" y="-346.9" font-family="Times,serif" font-size="12.00" fill="gray">burn all</text>
</g>
<!-- 7&#45;&gt;6 -->
<g id="edge32" class="edge">
<title>7&#45;&gt;6</title>
<path fill="none" stroke="gray" d="M1196.31,-211.83C1297.86,-192.98 1491.78,-166.38 1652.54,-199.5 1684.24,-206.03 1717.35,-218.93 1745.52,-231.96"/>
<polygon fill="gray" stroke="gray" points="1744.34,-235.28 1754.87,-236.38 1747.32,-228.95 1744.34,-235.28"/>
<text text-anchor="middle" x="1461.54" y="-188.9" font-family="Times,serif" font-size="12.00" fill="gray">disable mint</text>
</g>
<!-- 7&#45;&gt;7 -->
<g id="edge18" class="edge">
<title>7&#45;&gt;7</title>
<path fill="none" stroke="gray" d="M1116.31,-298.16C1117.72,-309.08 1120.79,-316.5 1125.54,-316.5 1128.65,-316.5 1131.05,-313.3 1132.73,-308.02"/>
<polygon fill="gray" stroke="gray" points="1136.17,-308.66 1134.77,-298.16 1129.32,-307.24 1136.17,-308.66"/>
<text text-anchor="middle" x="1125.54" y="-319.9" font-family="Times,serif" font-size="12.00" fill="gray">mint</text>
</g>
<!-- 7&#45;&gt;7 -->
<g id="edge27" class="edge">
<title>7&#45;&gt;7</title>
<path fill="none" stroke="gray" d="M1105.31,-295.83C1105.66,-317.47 1112.41,-334.5 1125.54,-334.5 1136.52,-334.5 1143.03,-322.6 1145.08,-306.05"/>
<polygon fill="gray" stroke="gray" points="1148.59,-306.05 1145.78,-295.83 1141.61,-305.57 1148.59,-306.05"/>
<text text-anchor="middle" x="1125.54" y="-337.9" font-family="Times,serif" font-size="12.00" fill="gray">burn</text>
</g>
<!-- 7&#45;&gt;8 -->
<g id="edge38" class="edge">
<title>7&#45;&gt;8</title>
<path fill="none" stroke="gray" d="M1184.94,-267.85C1195.14,-275.07 1205.65,-282.5 1215.54,-289.5 1234.78,-303.1 1255.68,-317.87 1274.82,-331.39"/>
<polygon fill="gray" stroke="gray" points="1273,-334.39 1283.19,-337.3 1277.04,-328.67 1273,-334.39"/>
<text text-anchor="middle" x="1234.04" y="-317.9" font-family="Times,serif" font-size="12.00" fill="gray">burn all</text>
</g>
<!-- 9 -->
<g id="node9" class="node">
<title>9</title>
<ellipse fill="none" stroke="gray" cx="1580.54" cy="-280.5" rx="72" ry="72"/>
<text text-anchor="middle" x="1580.54" y="-303.9" font-family="Times,serif" font-size="12.00" fill="gray">immutable</text>
<text text-anchor="middle" x="1580.54" y="-290.9" font-family="Times,serif" font-size="12.00" fill="gray">max&#45;supply reached</text>
<text text-anchor="middle" x="1580.54" y="-263.9" font-family="Times,serif" font-size="12.00" fill="gray">&#45; editable</text>
<text text-anchor="middle" x="1580.54" y="-250.9" font-family="Times,serif" font-size="12.00" fill="gray">+ mintable</text>
</g>
<!-- 7&#45;&gt;9 -->
<g id="edge22" class="edge">
<title>7&#45;&gt;9</title>
<path fill="none" stroke="gray" d="M1196.94,-237.88C1203.22,-238.8 1209.49,-239.69 1215.54,-240.5 1312.59,-253.45 1424.6,-265.3 1498.46,-272.68"/>
<polygon fill="gray" stroke="gray" points="1498.32,-276.18 1508.62,-273.69 1499.02,-269.22 1498.32,-276.18"/>
<text text-anchor="middle" x="1342.54" y="-267.9" font-family="Times,serif" font-size="12.00" fill="gray">mint all</text>
</g>
<!-- 8&#45;&gt;7 -->
<g id="edge17" class="edge">
<title>8&#45;&gt;7</title>
<path fill="none" stroke="gray" d="M1272.24,-361.81C1252.84,-355.2 1232.46,-346.29 1215.54,-334.5 1199.67,-323.43 1185.06,-308.81 1172.47,-293.9"/>
<polygon fill="gray" stroke="gray" points="1175.12,-291.61 1166.07,-286.1 1169.7,-296.05 1175.12,-291.61"/>
<text text-anchor="middle" x="1234.04" y="-356.9" font-family="Times,serif" font-size="12.00" fill="gray">mint</text>
</g>
<!-- 8&#45;&gt;9 -->
<g id="edge23" class="edge">
<title>8&#45;&gt;9</title>
<path fill="none" stroke="gray" d="M1405.61,-343.33C1414.53,-338.77 1423.69,-334.36 1432.54,-330.5 1454.59,-320.88 1479.14,-311.89 1501.75,-304.26"/>
<polygon fill="gray" stroke="gray" points="1502.93,-307.56 1511.32,-301.08 1500.72,-300.92 1502.93,-307.56"/>
<text text-anchor="middle" x="1461.54" y="-333.9" font-family="Times,serif" font-size="12.00" fill="gray">mint all</text>
</g>
<!-- 8&#45;&gt;10 -->
<g id="edge33" class="edge">
<title>8&#45;&gt;10</title>
<path fill="none" stroke="gray" d="M1414.56,-380.86C1543.79,-385.16 1816.59,-394.24 1953.11,-398.79"/>
<polygon fill="gray" stroke="gray" points="1953.39,-402.3 1963.5,-399.13 1953.62,-395.3 1953.39,-402.3"/>
<text text-anchor="middle" x="1699.54" y="-393.9" font-family="Times,serif" font-size="12.00" fill="gray">disable mint</text>
</g>
<!-- 9&#45;&gt;6 -->
<g id="edge34" class="edge">
<title>9&#45;&gt;6</title>
<path fill="none" stroke="gray" d="M1652.67,-277.48C1679.02,-276.37 1709.1,-275.09 1736.29,-273.94"/>
<polygon fill="gray" stroke="gray" points="1736.72,-277.42 1746.56,-273.5 1736.42,-270.43 1736.72,-277.42"/>
<text text-anchor="middle" x="1699.54" y="-280.9" font-family="Times,serif" font-size="12.00" fill="gray">disable mint</text>
</g>
<!-- 9&#45;&gt;7 -->
<g id="edge28" class="edge">
<title>9&#45;&gt;7</title>
<path fill="none" stroke="gray" d="M1512.65,-256.14C1483.02,-246.53 1447.47,-236.58 1414.54,-231.5 1345.42,-220.84 1265.87,-220.33 1207.91,-222.07"/>
<polygon fill="gray" stroke="gray" points="1207.59,-218.58 1197.71,-222.4 1207.82,-225.57 1207.59,-218.58"/>
<text text-anchor="middle" x="1342.54" y="-234.9" font-family="Times,serif" font-size="12.00" fill="gray">burn</text>
</g>
<!-- 9&#45;&gt;8 -->
<g id="edge39" class="edge">
<title>9&#45;&gt;8</title>
<path fill="none" stroke="gray" d="M1523.56,-324.9C1513.01,-331.87 1501.75,-338.42 1490.54,-343.5 1469.62,-352.96 1445.81,-360.05 1423.54,-365.27"/>
<polygon fill="gray" stroke="gray" points="1422.76,-361.86 1413.77,-367.47 1424.3,-368.69 1422.76,-361.86"/>
<text text-anchor="middle" x="1461.54" y="-364.9" font-family="Times,serif" font-size="12.00" fill="gray">burn all</text>
</g>
<!-- qi -->
<g id="node11" class="node">
<title>qi</title>
<ellipse fill="gray" stroke="gray" cx="3.6" cy="-339.5" rx="3.6" ry="3.6"/>
</g>
<!-- qi&#45;&gt;1 -->
<g id="edge1" class="edge">
<title>qi&#45;&gt;1</title>
<path fill="none" stroke="gray" d="M7.31,-339.5C14.34,-339.5 34.16,-339.5 56.74,-339.5"/>
<polygon fill="gray" stroke="gray" points="56.91,-343 66.91,-339.5 56.91,-336 56.91,-343"/>
<text text-anchor="middle" x="37.2" y="-342.9" font-family="Times,serif" font-size="12.00" fill="gray">issue</text>
</g>
</g>
</svg>
