<?xml version="1.0" encoding="UTF-8" standalone="no"?>
<!DOCTYPE svg PUBLIC "-//W3C//DTD SVG 1.1//EN"
 "http://www.w3.org/Graphics/SVG/1.1/DTD/svg11.dtd">
<!-- Generated by graphviz version 3.0.0 (20220226.1711)
 -->
<!-- Title: finite_state_machine Pages: 1 -->
<svg width="224pt" height="77pt"
 viewBox="0.00 0.00 223.60 77.00" xmlns="http://www.w3.org/2000/svg" xmlns:xlink="http://www.w3.org/1999/xlink">
<g id="graph0" class="graph" transform="scale(1 1) rotate(0) translate(4 73)">
<title>finite_state_machine</title>
<!-- 1 -->
<g id="node1" class="node">
<title>1</title>
<ellipse fill="none" stroke="gray" cx="100.6" cy="-18" rx="18" ry="18"/>
<text text-anchor="middle" x="100.6" y="-14.3" font-family="Times,serif" font-size="14.00" fill="gray">1</text>
</g>
<!-- 1&#45;&gt;1 -->
<g id="edge2" class="edge">
<title>1&#45;&gt;1</title>
<path fill="none" stroke="gray" d="M92.24,-34.29C90.22,-44.39 93.01,-54 100.6,-54 105.46,-54 108.36,-50.06 109.28,-44.57"/>
<polygon fill="gray" stroke="gray" points="112.77,-44.18 108.96,-34.29 105.77,-44.39 112.77,-44.18"/>
<text text-anchor="middle" x="100.6" y="-57.8" font-family="Times,serif" font-size="14.00" fill="gray">trading</text>
</g>
<!-- 2 -->
<g id="node2" class="node">
<title>2</title>
<ellipse fill="none" stroke="gray" cx="197.6" cy="-18" rx="18" ry="18"/>
<text text-anchor="middle" x="197.6" y="-14.3" font-family="Times,serif" font-size="14.00" fill="gray">2</text>
</g>
<!-- 1&#45;&gt;2 -->
<g id="edge3" class="edge">
<title>1&#45;&gt;2</title>
<path fill="none" stroke="gray" d="M119.02,-18C132.95,-18 152.74,-18 168.84,-18"/>
<polygon fill="gray" stroke="gray" points="169.29,-21.5 179.29,-18 169.29,-14.5 169.29,-21.5"/>
<text text-anchor="middle" x="149.1" y="-21.8" font-family="Times,serif" font-size="14.00" fill="gray">burn</text>
</g>
<!-- qi -->
<g id="node3" class="node">
<title>qi</title>
<ellipse fill="gray" stroke="gray" cx="1.8" cy="-18" rx="1.8" ry="1.8"/>
</g>
<!-- qi&#45;&gt;1 -->
<g id="edge1" class="edge">
<title>qi&#45;&gt;1</title>
<path fill="none" stroke="gray" d="M3.89,-18C10.57,-18 46.64,-18 72.53,-18"/>
<polygon fill="gray" stroke="gray" points="72.54,-21.5 82.54,-18 72.54,-14.5 72.54,-21.5"/>
<text text-anchor="middle" x="43.1" y="-21.8" font-family="Times,serif" font-size="14.00" fill="gray">minting</text>
</g>
</g>
</svg>
