<?xml version="1.0" encoding="UTF-8" standalone="no"?>
<!DOCTYPE svg PUBLIC "-//W3C//DTD SVG 1.1//EN"
 "http://www.w3.org/Graphics/SVG/1.1/DTD/svg11.dtd">
<!-- Generated by graphviz version 3.0.0 (20220226.1711)
 -->
<!-- Title: finite_state_machine Pages: 1 -->
<svg width="576pt" height="171pt"
 viewBox="0.00 0.00 576.00 170.52" xmlns="http://www.w3.org/2000/svg" xmlns:xlink="http://www.w3.org/1999/xlink">
<g id="graph0" class="graph" transform="scale(0.491216 0.491216) rotate(0) translate(4 343.13)">
<title>finite_state_machine</title>
<!-- 1 -->
<g id="node1" class="node">
<title>1</title>
<ellipse fill="none" stroke="gray" cx="91.6" cy="-169.13" rx="18" ry="18"/>
<text text-anchor="middle" x="91.6" y="-166.03" font-family="Times,serif" font-size="12.00" fill="gray">1</text>
</g>
<!-- 1&#45;&gt;1 -->
<g id="edge2" class="edge">
<title>1:n&#45;&gt;1</title>
<path fill="none" stroke="gray" d="M91.6,-187.13C78.6,-199.13 78.6,-223.13 91.6,-223.13 99.44,-223.13 102.55,-210.04 100.94,-195.7"/>
<polygon fill="gray" stroke="gray" points="104.35,-194.9 99.06,-185.72 97.47,-196.19 104.35,-194.9"/>
<text text-anchor="middle" x="91.6" y="-226.53" font-family="Times,serif" font-size="12.00" fill="gray">changing minter address</text>
</g>
<!-- 1&#45;&gt;1 -->
<g id="edge3" class="edge">
<title>1:s&#45;&gt;1</title>
<path fill="none" stroke="gray" d="M91.6,-151.13C78.6,-139.13 78.6,-115.13 91.6,-115.13 99.44,-115.13 102.55,-128.22 100.94,-142.56"/>
<polygon fill="gray" stroke="gray" points="97.47,-142.07 99.06,-152.55 104.35,-143.36 97.47,-142.07"/>
<text text-anchor="middle" x="91.6" y="-105.53" font-family="Times,serif" font-size="12.00" fill="gray">changing authority address</text>
</g>
<!-- 2 -->
<g id="node2" class="node">
<title>2</title>
<ellipse fill="none" stroke="gray" cx="623.6" cy="-169.13" rx="18" ry="18"/>
<text text-anchor="middle" x="623.6" y="-166.03" font-family="Times,serif" font-size="12.00" fill="gray">2</text>
</g>
<!-- 1&#45;&gt;2 -->
<g id="edge4" class="edge">
<title>1&#45;&gt;2</title>
<path fill="none" stroke="gray" d="M109.17,-174.3C114.94,-175.86 121.5,-177.36 127.6,-178.13 330.43,-203.79 384.77,-203.79 587.6,-178.13 590.36,-177.78 593.22,-177.28 596.06,-176.7"/>
<polygon fill="gray" stroke="gray" points="597.12,-180.04 606.03,-174.3 595.49,-173.23 597.12,-180.04"/>
<text text-anchor="middle" x="397.6" y="-200.53" font-family="Times,serif" font-size="12.00" fill="gray">changing minter address to empty</text>
</g>
<!-- 3 -->
<g id="node3" class="node">
<title>3</title>
<ellipse fill="none" stroke="gray" cx="541.6" cy="-272.13" rx="18" ry="18"/>
<text text-anchor="middle" x="541.6" y="-269.03" font-family="Times,serif" font-size="12.00" fill="gray">3</text>
</g>
<!-- 1&#45;&gt;3 -->
<g id="edge8" class="edge">
<title>1&#45;&gt;3</title>
<path fill="none" stroke="gray" d="M97.71,-186.15C102.87,-200.16 112.3,-219.26 127.6,-229.13 252.07,-309.48 442.85,-288.54 513.26,-277.15"/>
<polygon fill="gray" stroke="gray" points="514.22,-280.54 523.5,-275.42 513.06,-273.64 514.22,-280.54"/>
<text text-anchor="middle" x="213.6" y="-286.53" font-family="Times,serif" font-size="12.00" fill="gray">changing authority address to empty</text>
</g>
<!-- 5 -->
<g id="node5" class="node">
<title>5</title>
<ellipse fill="none" stroke="gray" cx="397.6" cy="-79.13" rx="18" ry="18"/>
<text text-anchor="middle" x="397.6" y="-76.03" font-family="Times,serif" font-size="12.00" fill="gray">5</text>
</g>
<!-- 1&#45;&gt;5 -->
<g id="edge10" class="edge">
<title>1&#45;&gt;5</title>
<path fill="none" stroke="gray" d="M103.05,-154.78C109.33,-147.19 117.95,-138.39 127.6,-133.13 138.3,-127.3 303.73,-96.3 369.72,-84.08"/>
<polygon fill="gray" stroke="gray" points="370.58,-87.48 379.78,-82.22 369.31,-80.6 370.58,-87.48"/>
<text text-anchor="middle" x="213.6" y="-149.53" font-family="Times,serif" font-size="12.00" fill="gray">reaching max&#45;supply</text>
<text text-anchor="middle" x="213.6" y="-136.53" font-family="Times,serif" font-size="12.00" fill="gray">(cannot mint again)</text>
</g>
<!-- 2&#45;&gt;2 -->
<g id="edge5" class="edge">
<title>2:n&#45;&gt;2</title>
<path fill="none" stroke="gray" d="M623.6,-187.13C603.1,-199.13 603.1,-223.13 623.6,-223.13 636.66,-223.13 641.4,-208.51 637.82,-193.25"/>
<polygon fill="gray" stroke="gray" points="641.11,-192.07 634.51,-183.78 634.5,-194.38 641.11,-192.07"/>
<text text-anchor="middle" x="623.6" y="-226.53" font-family="Times,serif" font-size="12.00" fill="gray">changing authority address</text>
</g>
<!-- 4 -->
<g id="node4" class="node">
<title>4</title>
<ellipse fill="none" stroke="gray" cx="1146.6" cy="-158.13" rx="18" ry="18"/>
<text text-anchor="middle" x="1146.6" y="-155.03" font-family="Times,serif" font-size="12.00" fill="gray">4</text>
</g>
<!-- 2&#45;&gt;4 -->
<g id="edge6" class="edge">
<title>2&#45;&gt;4</title>
<path fill="none" stroke="gray" d="M641.92,-170.6C705.04,-175.62 928.58,-190.54 1110.6,-167.13 1113.36,-166.78 1116.22,-166.27 1119.06,-165.69"/>
<polygon fill="gray" stroke="gray" points="1120.12,-169.03 1129.03,-163.29 1118.49,-162.22 1120.12,-169.03"/>
<text text-anchor="middle" x="923.6" y="-182.53" font-family="Times,serif" font-size="12.00" fill="gray">changing authority address to empty</text>
</g>
<!-- 3&#45;&gt;3 -->
<g id="edge7" class="edge">
<title>3:n&#45;&gt;3</title>
<path fill="none" stroke="gray" d="M541.6,-290.13C521.1,-302.13 521.1,-326.13 541.6,-326.13 554.66,-326.13 559.4,-311.51 555.82,-296.25"/>
<polygon fill="gray" stroke="gray" points="559.11,-295.07 552.51,-286.78 552.5,-297.38 559.11,-295.07"/>
<text text-anchor="middle" x="541.6" y="-329.53" font-family="Times,serif" font-size="12.00" fill="gray">changing minter address</text>
</g>
<!-- 3&#45;&gt;4 -->
<g id="edge9" class="edge">
<title>3&#45;&gt;4</title>
<path fill="none" stroke="gray" d="M559.69,-274.07C631.74,-281.42 915.89,-302.18 1110.6,-198.13 1118.15,-194.1 1124.83,-187.73 1130.27,-181.25"/>
<polygon fill="gray" stroke="gray" points="1133.17,-183.22 1136.48,-173.15 1127.62,-178.96 1133.17,-183.22"/>
<text text-anchor="middle" x="739.6" y="-283.53" font-family="Times,serif" font-size="12.00" fill="gray">changing minter address to empty</text>
</g>
<!-- 5&#45;&gt;1 -->
<g id="edge11" class="edge">
<title>5&#45;&gt;1</title>
<path fill="none" stroke="gray" d="M381.05,-71.96C336.59,-52.61 206.97,-4.59 127.6,-62.13 102.95,-80 95.34,-115.73 93.16,-140.98"/>
<polygon fill="gray" stroke="gray" points="89.66,-140.87 92.52,-151.07 96.65,-141.31 89.66,-140.87"/>
<text text-anchor="middle" x="213.6" y="-65.53" font-family="Times,serif" font-size="12.00" fill="gray">burning tokens</text>
</g>
<!-- 5&#45;&gt;2 -->
<g id="edge15" class="edge">
<title>5&#45;&gt;2</title>
<path fill="none" stroke="gray" d="M415.01,-83.73C448.41,-93.36 526.31,-117.28 587.6,-147.13 591.59,-149.08 595.7,-151.37 599.63,-153.72"/>
<polygon fill="gray" stroke="gray" points="598.03,-156.85 608.36,-159.2 601.75,-150.92 598.03,-156.85"/>
<text text-anchor="middle" x="541.6" y="-163.53" font-family="Times,serif" font-size="12.00" fill="gray">changing minter </text>
<text text-anchor="middle" x="541.6" y="-150.53" font-family="Times,serif" font-size="12.00" fill="gray"> address to empty</text>
</g>
<!-- 5&#45;&gt;5 -->
<g id="edge16" class="edge">
<title>5:n&#45;&gt;5</title>
<path fill="none" stroke="gray" d="M397.6,-97.13C361.6,-109.13 361.6,-133.13 397.6,-133.13 423.57,-133.13 430.81,-114.39 419.3,-97.19"/>
<polygon fill="gray" stroke="gray" points="421.85,-94.79 412.69,-89.47 416.54,-99.34 421.85,-94.79"/>
<text text-anchor="middle" x="397.6" y="-136.53" font-family="Times,serif" font-size="12.00" fill="gray">changing minter address</text>
</g>
<!-- 5&#45;&gt;5 -->
<g id="edge17" class="edge">
<title>5:s&#45;&gt;5</title>
<path fill="none" stroke="gray" d="M397.6,-61.13C361.6,-49.13 361.6,-25.13 397.6,-25.13 423.57,-25.13 430.81,-43.87 419.3,-61.07"/>
<polygon fill="gray" stroke="gray" points="416.54,-58.92 412.69,-68.79 421.85,-63.47 416.54,-58.92"/>
<text text-anchor="middle" x="397.6" y="-15.53" font-family="Times,serif" font-size="12.00" fill="gray">changing authority address</text>
</g>
<!-- 6 -->
<g id="node6" class="node">
<title>6</title>
<ellipse fill="none" stroke="gray" cx="623.6" cy="-66.13" rx="18" ry="18"/>
<text text-anchor="middle" x="623.6" y="-63.03" font-family="Times,serif" font-size="12.00" fill="gray">6</text>
</g>
<!-- 5&#45;&gt;6 -->
<g id="edge12" class="edge">
<title>5&#45;&gt;6</title>
<path fill="none" stroke="gray" d="M415.8,-78.13C454.49,-75.89 548.58,-70.43 595.32,-67.72"/>
<polygon fill="gray" stroke="gray" points="595.56,-71.21 605.34,-67.13 595.15,-64.22 595.56,-71.21"/>
<text text-anchor="middle" x="541.6" y="-90.53" font-family="Times,serif" font-size="12.00" fill="gray">changing authority </text>
<text text-anchor="middle" x="541.6" y="-77.53" font-family="Times,serif" font-size="12.00" fill="gray"> address to empty</text>
</g>
<!-- 6&#45;&gt;4 -->
<g id="edge19" class="edge">
<title>6&#45;&gt;4</title>
<path fill="none" stroke="gray" d="M639.51,-57.61C645.57,-54.49 652.75,-51.22 659.6,-49.13 808.78,-3.66 860.44,21.4 1009.6,-24.13 1061.36,-39.93 1074.4,-51.91 1110.6,-92.13 1121.11,-103.81 1129.51,-119.21 1135.44,-132.2"/>
<polygon fill="gray" stroke="gray" points="1132.31,-133.77 1139.49,-141.56 1138.73,-130.99 1132.31,-133.77"/>
<text text-anchor="middle" x="923.6" y="-40.53" font-family="Times,serif" font-size="12.00" fill="gray">changing minter </text>
<text text-anchor="middle" x="923.6" y="-27.53" font-family="Times,serif" font-size="12.00" fill="gray"> address to empty</text>
</g>
<!-- 6&#45;&gt;6 -->
<g id="edge18" class="edge">
<title>6:n&#45;&gt;6</title>
<path fill="none" stroke="gray" d="M623.6,-84.13C603.1,-96.13 603.1,-120.13 623.6,-120.13 636.66,-120.13 641.4,-105.51 637.82,-90.25"/>
<polygon fill="gray" stroke="gray" points="641.11,-89.07 634.51,-80.78 634.5,-91.38 641.11,-89.07"/>
<text text-anchor="middle" x="623.6" y="-123.53" font-family="Times,serif" font-size="12.00" fill="gray">changing minter address</text>
</g>
<!-- 7 -->
<g id="node7" class="node">
<title>7</title>
<ellipse fill="none" stroke="gray" cx="923.6" cy="-100.13" rx="18" ry="18"/>
<text text-anchor="middle" x="923.6" y="-97.03" font-family="Times,serif" font-size="12.00" fill="gray">7</text>
</g>
<!-- 6&#45;&gt;7 -->
<g id="edge13" class="edge">
<title>6&#45;&gt;7</title>
<path fill="none" stroke="gray" d="M641.46,-63.77C675.46,-59.47 754.56,-51.8 819.6,-63.13 847.27,-67.95 877.32,-79.54 897.79,-88.48"/>
<polygon fill="gray" stroke="gray" points="896.45,-91.71 907.01,-92.61 899.31,-85.32 896.45,-91.71"/>
<text text-anchor="middle" x="739.6" y="-66.53" font-family="Times,serif" font-size="12.00" fill="gray">burning tokens</text>
</g>
<!-- 7&#45;&gt;4 -->
<g id="edge20" class="edge">
<title>7&#45;&gt;4</title>
<path fill="none" stroke="gray" d="M941.56,-98.5C975.58,-95.99 1053.74,-94.06 1110.6,-122.13 1117.32,-125.45 1123.48,-130.6 1128.69,-135.98"/>
<polygon fill="gray" stroke="gray" points="1126.37,-138.64 1135.6,-143.84 1131.62,-134.02 1126.37,-138.64"/>
<text text-anchor="middle" x="1069.1" y="-138.53" font-family="Times,serif" font-size="12.00" fill="gray">changing minter </text>
<text text-anchor="middle" x="1069.1" y="-125.53" font-family="Times,serif" font-size="12.00" fill="gray"> address to empty</text>
</g>
<!-- 7&#45;&gt;6 -->
<g id="edge14" class="edge">
<title>7&#45;&gt;6</title>
<path fill="none" stroke="gray" d="M905.41,-100.61C863.02,-101.42 750.37,-101.21 659.6,-80.13 656.35,-79.38 653,-78.37 649.73,-77.23"/>
<polygon fill="gray" stroke="gray" points="650.89,-73.93 640.3,-73.6 648.37,-80.46 650.89,-73.93"/>
<text text-anchor="middle" x="739.6" y="-116.53" font-family="Times,serif" font-size="12.00" fill="gray">reaching max&#45;supply</text>
<text text-anchor="middle" x="739.6" y="-103.53" font-family="Times,serif" font-size="12.00" fill="gray">(cannot mint again)</text>
</g>
<!-- qi -->
<g id="node8" class="node">
<title>qi</title>
<ellipse fill="gray" stroke="gray" cx="1.8" cy="-169.13" rx="1.8" ry="1.8"/>
</g>
<!-- qi&#45;&gt;1 -->
<g id="edge1" class="edge">
<title>qi&#45;&gt;1</title>
<path fill="none" stroke="gray" d="M3.79,-169.13C9.63,-169.13 40.31,-169.13 63.55,-169.13"/>
<polygon fill="gray" stroke="gray" points="63.59,-172.63 73.59,-169.13 63.59,-165.63 63.59,-172.63"/>
<text text-anchor="middle" x="38.6" y="-172.53" font-family="Times,serif" font-size="12.00" fill="gray">issuing</text>
</g>
</g>
</svg>
