<?xml version="1.0" encoding="UTF-8" standalone="no"?>
<!DOCTYPE svg PUBLIC "-//W3C//DTD SVG 1.1//EN"
 "http://www.w3.org/Graphics/SVG/1.1/DTD/svg11.dtd">
<!-- Generated by graphviz version 3.0.0 (20220226.1711)
 -->
<!-- Title: cluster01 Pages: 1 -->
<svg width="642pt" height="260pt"
 viewBox="0.00 0.00 642.29 260.00" xmlns="http://www.w3.org/2000/svg" xmlns:xlink="http://www.w3.org/1999/xlink">
<g id="graph0" class="graph" transform="scale(1 1) rotate(0) translate(4 256)">
<title>cluster01</title>
<!-- n001 -->
<g id="node1" class="node">
<title>n001</title>
<ellipse fill="white" stroke="black" cx="318.79" cy="-234" rx="74.19" ry="18"/>
<text text-anchor="middle" x="318.79" y="-230.3" font-family="Times,serif" font-size="14.00">root = hash(A, B)</text>
</g>
<!-- n002 -->
<g id="node2" class="node">
<title>n002</title>
<ellipse fill="white" stroke="black" cx="236.79" cy="-162" rx="65.79" ry="18"/>
<text text-anchor="middle" x="236.79" y="-158.3" font-family="Times,serif" font-size="14.00">A = hash(C, D)</text>
</g>
<!-- n001&#45;&#45;n002 -->
<g id="edge1" class="edge">
<title>n001&#45;&#45;n002</title>
<path fill="none" stroke="black" d="M299.36,-216.41C286.29,-205.25 269.13,-190.6 256.09,-179.47"/>
</g>
<!-- n003 -->
<g id="node3" class="node">
<title>n003</title>
<ellipse fill="white" stroke="black" cx="400.79" cy="-162" rx="63.89" ry="18"/>
<text text-anchor="middle" x="400.79" y="-158.3" font-family="Times,serif" font-size="14.00">B = hash(E, F)</text>
</g>
<!-- n001&#45;&#45;n003 -->
<g id="edge2" class="edge">
<title>n001&#45;&#45;n003</title>
<path fill="none" stroke="black" d="M338.23,-216.41C351.39,-205.17 368.71,-190.39 381.78,-179.23"/>
</g>
<!-- n004 -->
<g id="node4" class="node">
<title>n004</title>
<ellipse fill="white" stroke="black" cx="72.79" cy="-90" rx="72.59" ry="18"/>
<text text-anchor="middle" x="72.79" y="-86.3" font-family="Times,serif" font-size="14.00">C = hash(block1)</text>
</g>
<!-- n002&#45;&#45;n004 -->
<g id="edge3" class="edge">
<title>n002&#45;&#45;n004</title>
<path fill="none" stroke="black" d="M202.81,-146.5C174.95,-134.6 135.66,-117.83 107.58,-105.85"/>
</g>
<!-- n005 -->
<g id="node5" class="node">
<title>n005</title>
<ellipse fill="white" stroke="black" cx="236.79" cy="-90" rx="73.39" ry="18"/>
<text text-anchor="middle" x="236.79" y="-86.3" font-family="Times,serif" font-size="14.00">D = hash(block2)</text>
</g>
<!-- n002&#45;&#45;n005 -->
<g id="edge4" class="edge">
<title>n002&#45;&#45;n005</title>
<path fill="none" stroke="black" d="M236.79,-143.7C236.79,-132.85 236.79,-118.92 236.79,-108.1"/>
</g>
<!-- n006 -->
<g id="node6" class="node">
<title>n006</title>
<ellipse fill="white" stroke="black" cx="400.79" cy="-90" rx="72.29" ry="18"/>
<text text-anchor="middle" x="400.79" y="-86.3" font-family="Times,serif" font-size="14.00">E = hash(block3)</text>
</g>
<!-- n003&#45;&#45;n006 -->
<g id="edge5" class="edge">
<title>n003&#45;&#45;n006</title>
<path fill="none" stroke="black" d="M400.79,-143.7C400.79,-132.85 400.79,-118.92 400.79,-108.1"/>
</g>
<!-- n007 -->
<g id="node7" class="node">
<title>n007</title>
<ellipse fill="white" stroke="black" cx="562.79" cy="-90" rx="71.49" ry="18"/>
<text text-anchor="middle" x="562.79" y="-86.3" font-family="Times,serif" font-size="14.00">F = hash(block4)</text>
</g>
<!-- n003&#45;&#45;n007 -->
<g id="edge6" class="edge">
<title>n003&#45;&#45;n007</title>
<path fill="none" stroke="black" d="M434.36,-146.5C461.89,-134.6 500.69,-117.83 528.43,-105.85"/>
</g>
<!-- n008 -->
<g id="node8" class="node">
<title>n008</title>
<polygon fill="white" stroke="black" points="99.79,-36 45.79,-36 45.79,0 99.79,0 99.79,-36"/>
<text text-anchor="middle" x="72.79" y="-14.3" font-family="Times,serif" font-size="14.00">block1</text>
</g>
<!-- n004&#45;&#45;n008 -->
<g id="edge7" class="edge">
<title>n004&#45;&#45;n008</title>
<path fill="none" stroke="black" d="M72.79,-71.7C72.79,-60.85 72.79,-46.92 72.79,-36.1"/>
</g>
<!-- n009 -->
<g id="node9" class="node">
<title>n009</title>
<polygon fill="white" stroke="black" points="263.79,-36 209.79,-36 209.79,0 263.79,0 263.79,-36"/>
<text text-anchor="middle" x="236.79" y="-14.3" font-family="Times,serif" font-size="14.00">block2</text>
</g>
<!-- n005&#45;&#45;n009 -->
<g id="edge8" class="edge">
<title>n005&#45;&#45;n009</title>
<path fill="none" stroke="black" d="M236.79,-71.7C236.79,-60.85 236.79,-46.92 236.79,-36.1"/>
</g>
<!-- n010 -->
<g id="node10" class="node">
<title>n010</title>
<polygon fill="white" stroke="black" points="427.79,-36 373.79,-36 373.79,0 427.79,0 427.79,-36"/>
<text text-anchor="middle" x="400.79" y="-14.3" font-family="Times,serif" font-size="14.00">block3</text>
</g>
<!-- n006&#45;&#45;n010 -->
<g id="edge9" class="edge">
<title>n006&#45;&#45;n010</title>
<path fill="none" stroke="black" d="M400.79,-71.7C400.79,-60.85 400.79,-46.92 400.79,-36.1"/>
</g>
<!-- n011 -->
<g id="node11" class="node">
<title>n011</title>
<polygon fill="white" stroke="black" points="589.79,-36 535.79,-36 535.79,0 589.79,0 589.79,-36"/>
<text text-anchor="middle" x="562.79" y="-14.3" font-family="Times,serif" font-size="14.00">block4</text>
</g>
<!-- n007&#45;&#45;n011 -->
<g id="edge10" class="edge">
<title>n007&#45;&#45;n011</title>
<path fill="none" stroke="black" d="M562.79,-71.7C562.79,-60.85 562.79,-46.92 562.79,-36.1"/>
</g>
</g>
</svg>
