<?xml version="1.0" encoding="UTF-8" standalone="no"?>
<!DOCTYPE svg PUBLIC "-//W3C//DTD SVG 1.1//EN"
 "http://www.w3.org/Graphics/SVG/1.1/DTD/svg11.dtd">
<!-- Generated by graphviz version 3.0.0 (20220226.1711)
 -->
<!-- Pages: 1 -->
<svg width="1142pt" height="332pt"
 viewBox="0.00 0.00 1142.00 332.00" xmlns="http://www.w3.org/2000/svg" xmlns:xlink="http://www.w3.org/1999/xlink">
<g id="graph0" class="graph" transform="scale(1 1) rotate(0) translate(4 328)">
<!-- n001 -->
<g id="node1" class="node">
<title>n001</title>
<ellipse fill="none" stroke="blue" stroke-dasharray="5,2" cx="566" cy="-306" rx="95.58" ry="18"/>
<text text-anchor="start" x="500.5" y="-303.3" font-family="Times,serif" font-size="14.00">H</text>
<text text-anchor="start" x="510.5" y="-303.3" font-family="Times,serif" baseline-shift="sub" font-size="14.00">ABCDEFGHIJKLMNOP</text>
</g>
<!-- n002 -->
<g id="node2" class="node">
<title>n002</title>
<ellipse fill="none" stroke="blue" stroke-dasharray="5,2" cx="422" cy="-234" rx="57.69" ry="18"/>
<text text-anchor="start" x="385.5" y="-231.3" font-family="Times,serif" font-size="14.00">H</text>
<text text-anchor="start" x="395.5" y="-231.3" font-family="Times,serif" baseline-shift="sub" font-size="14.00">ABCDEFGH</text>
</g>
<!-- n001&#45;&#45;n002 -->
<g id="edge1" class="edge">
<title>n001&#45;&#45;n002</title>
<path fill="none" stroke="black" d="M532.96,-288.94C508.55,-277.07 475.59,-261.05 451.94,-249.56"/>
</g>
<!-- n003 -->
<g id="node3" class="node">
<title>n003</title>
<ellipse fill="blue" stroke="black" cx="711" cy="-234" rx="54.69" ry="18"/>
<text text-anchor="start" x="677" y="-231.3" font-family="Times,serif" font-size="14.00" fill="white">H</text>
<text text-anchor="start" x="687" y="-231.3" font-family="Times,serif" baseline-shift="sub" font-size="14.00" fill="white">IJKLMNOP</text>
</g>
<!-- n001&#45;&#45;n003 -->
<g id="edge2" class="edge">
<title>n001&#45;&#45;n003</title>
<path fill="none" stroke="black" d="M599.27,-288.94C624.01,-276.99 657.49,-260.83 681.33,-249.32"/>
</g>
<!-- n004 -->
<g id="node4" class="node">
<title>n004</title>
<ellipse fill="blue" stroke="black" cx="207" cy="-162" rx="37.89" ry="18"/>
<text text-anchor="start" x="186" y="-159.3" font-family="Times,serif" font-size="14.00" fill="white">H</text>
<text text-anchor="start" x="196" y="-159.3" font-family="Times,serif" baseline-shift="sub" font-size="14.00" fill="white">ABCD</text>
</g>
<!-- n002&#45;&#45;n004 -->
<g id="edge3" class="edge">
<title>n002&#45;&#45;n004</title>
<path fill="none" stroke="black" d="M383.56,-220.49C341.77,-206.88 275.83,-185.41 237.47,-172.92"/>
</g>
<!-- n005 -->
<g id="node5" class="node">
<title>n005</title>
<ellipse fill="none" stroke="blue" stroke-dasharray="5,2" cx="422" cy="-162" rx="37.09" ry="18"/>
<text text-anchor="start" x="401.5" y="-159.3" font-family="Times,serif" font-size="14.00">H</text>
<text text-anchor="start" x="411.5" y="-159.3" font-family="Times,serif" baseline-shift="sub" font-size="14.00">EFGH</text>
</g>
<!-- n002&#45;&#45;n005 -->
<g id="edge4" class="edge">
<title>n002&#45;&#45;n005</title>
<path fill="none" stroke="black" d="M422,-215.7C422,-204.85 422,-190.92 422,-180.1"/>
</g>
<!-- n006 -->
<g id="node6" class="node">
<title>n006</title>
<ellipse fill="none" stroke="black" cx="711" cy="-162" rx="33.29" ry="18"/>
<text text-anchor="start" x="693.5" y="-159.3" font-family="Times,serif" font-size="14.00">H</text>
<text text-anchor="start" x="703.5" y="-159.3" font-family="Times,serif" baseline-shift="sub" font-size="14.00">IJKL</text>
</g>
<!-- n003&#45;&#45;n006 -->
<g id="edge5" class="edge">
<title>n003&#45;&#45;n006</title>
<path fill="none" stroke="black" d="M711,-215.7C711,-204.85 711,-190.92 711,-180.1"/>
</g>
<!-- n007 -->
<g id="node7" class="node">
<title>n007</title>
<ellipse fill="none" stroke="black" cx="925" cy="-162" rx="38.99" ry="18"/>
<text text-anchor="start" x="903" y="-159.3" font-family="Times,serif" font-size="14.00">H</text>
<text text-anchor="start" x="913" y="-159.3" font-family="Times,serif" baseline-shift="sub" font-size="14.00">MNOP</text>
</g>
<!-- n003&#45;&#45;n007 -->
<g id="edge6" class="edge">
<title>n003&#45;&#45;n007</title>
<path fill="none" stroke="black" d="M748.28,-220.81C789.59,-207.29 855.47,-185.74 894.05,-173.12"/>
</g>
<!-- n008 -->
<g id="node8" class="node">
<title>n008</title>
<ellipse fill="none" stroke="black" cx="99" cy="-90" rx="27.1" ry="18"/>
<text text-anchor="start" x="86" y="-87.3" font-family="Times,serif" font-size="14.00">H</text>
<text text-anchor="start" x="96" y="-87.3" font-family="Times,serif" baseline-shift="sub" font-size="14.00">AB</text>
</g>
<!-- n004&#45;&#45;n008 -->
<g id="edge7" class="edge">
<title>n004&#45;&#45;n008</title>
<path fill="none" stroke="black" d="M185.4,-147C165.71,-134.24 136.88,-115.55 118.03,-103.33"/>
</g>
<!-- n009 -->
<g id="node9" class="node">
<title>n009</title>
<ellipse fill="none" stroke="black" cx="207" cy="-90" rx="27.1" ry="18"/>
<text text-anchor="start" x="194" y="-87.3" font-family="Times,serif" font-size="14.00">H</text>
<text text-anchor="start" x="204" y="-87.3" font-family="Times,serif" baseline-shift="sub" font-size="14.00">CD</text>
</g>
<!-- n004&#45;&#45;n009 -->
<g id="edge8" class="edge">
<title>n004&#45;&#45;n009</title>
<path fill="none" stroke="black" d="M207,-143.7C207,-132.85 207,-118.92 207,-108.1"/>
</g>
<!-- n010 -->
<g id="node10" class="node">
<title>n010</title>
<ellipse fill="blue" stroke="black" cx="386" cy="-90" rx="27" ry="18"/>
<text text-anchor="start" x="373.5" y="-87.3" font-family="Times,serif" font-size="14.00" fill="white">H</text>
<text text-anchor="start" x="383.5" y="-87.3" font-family="Times,serif" baseline-shift="sub" font-size="14.00" fill="white">EF</text>
</g>
<!-- n005&#45;&#45;n010 -->
<g id="edge9" class="edge">
<title>n005&#45;&#45;n010</title>
<path fill="none" stroke="black" d="M413.47,-144.41C407.73,-133.25 400.2,-118.6 394.47,-107.47"/>
</g>
<!-- n011 -->
<g id="node11" class="node">
<title>n011</title>
<ellipse fill="none" stroke="blue" stroke-dasharray="5,2" cx="459" cy="-90" rx="27.9" ry="18"/>
<text text-anchor="start" x="445.5" y="-87.3" font-family="Times,serif" font-size="14.00">H</text>
<text text-anchor="start" x="455.5" y="-87.3" font-family="Times,serif" baseline-shift="sub" font-size="14.00">GH</text>
</g>
<!-- n005&#45;&#45;n011 -->
<g id="edge10" class="edge">
<title>n005&#45;&#45;n011</title>
<path fill="none" stroke="black" d="M430.77,-144.41C436.67,-133.25 444.41,-118.6 450.29,-107.47"/>
</g>
<!-- n012 -->
<g id="node12" class="node">
<title>n012</title>
<ellipse fill="none" stroke="black" cx="675" cy="-90" rx="27" ry="18"/>
<text text-anchor="start" x="665.5" y="-87.3" font-family="Times,serif" font-size="14.00">H</text>
<text text-anchor="start" x="675.5" y="-87.3" font-family="Times,serif" baseline-shift="sub" font-size="14.00">IJ</text>
</g>
<!-- n006&#45;&#45;n012 -->
<g id="edge11" class="edge">
<title>n006&#45;&#45;n012</title>
<path fill="none" stroke="black" d="M702.47,-144.41C696.73,-133.25 689.2,-118.6 683.47,-107.47"/>
</g>
<!-- n013 -->
<g id="node13" class="node">
<title>n013</title>
<ellipse fill="none" stroke="black" cx="747" cy="-90" rx="27.1" ry="18"/>
<text text-anchor="start" x="734" y="-87.3" font-family="Times,serif" font-size="14.00">H</text>
<text text-anchor="start" x="744" y="-87.3" font-family="Times,serif" baseline-shift="sub" font-size="14.00">KL</text>
</g>
<!-- n006&#45;&#45;n013 -->
<g id="edge12" class="edge">
<title>n006&#45;&#45;n013</title>
<path fill="none" stroke="black" d="M719.53,-144.41C725.27,-133.25 732.8,-118.6 738.53,-107.47"/>
</g>
<!-- n014 -->
<g id="node14" class="node">
<title>n014</title>
<ellipse fill="none" stroke="black" cx="925" cy="-90" rx="29.5" ry="18"/>
<text text-anchor="start" x="910.5" y="-87.3" font-family="Times,serif" font-size="14.00">H</text>
<text text-anchor="start" x="920.5" y="-87.3" font-family="Times,serif" baseline-shift="sub" font-size="14.00">MN</text>
</g>
<!-- n007&#45;&#45;n014 -->
<g id="edge13" class="edge">
<title>n007&#45;&#45;n014</title>
<path fill="none" stroke="black" d="M925,-143.7C925,-132.85 925,-118.92 925,-108.1"/>
</g>
<!-- n015 -->
<g id="node15" class="node">
<title>n015</title>
<ellipse fill="none" stroke="black" cx="1035" cy="-90" rx="27.1" ry="18"/>
<text text-anchor="start" x="1022" y="-87.3" font-family="Times,serif" font-size="14.00">H</text>
<text text-anchor="start" x="1032" y="-87.3" font-family="Times,serif" baseline-shift="sub" font-size="14.00">OP</text>
</g>
<!-- n007&#45;&#45;n015 -->
<g id="edge14" class="edge">
<title>n007&#45;&#45;n015</title>
<path fill="none" stroke="black" d="M947,-147C967.18,-134.16 996.79,-115.32 1015.98,-103.11"/>
</g>
<!-- n016 -->
<g id="node16" class="node">
<title>n016</title>
<ellipse fill="none" stroke="black" cx="27" cy="-18" rx="27" ry="18"/>
<text text-anchor="start" x="17.5" y="-15.3" font-family="Times,serif" font-size="14.00">H</text>
<text text-anchor="start" x="27.5" y="-15.3" font-family="Times,serif" baseline-shift="sub" font-size="14.00">A</text>
</g>
<!-- n008&#45;&#45;n016 -->
<g id="edge15" class="edge">
<title>n008&#45;&#45;n016</title>
<path fill="none" stroke="black" d="M84.08,-74.5C71.72,-62.48 54.25,-45.49 41.9,-33.49"/>
</g>
<!-- n017 -->
<g id="node17" class="node">
<title>n017</title>
<ellipse fill="none" stroke="black" cx="99" cy="-18" rx="27" ry="18"/>
<text text-anchor="start" x="90" y="-15.3" font-family="Times,serif" font-size="14.00">H</text>
<text text-anchor="start" x="100" y="-15.3" font-family="Times,serif" baseline-shift="sub" font-size="14.00">B</text>
</g>
<!-- n008&#45;&#45;n017 -->
<g id="edge16" class="edge">
<title>n008&#45;&#45;n017</title>
<path fill="none" stroke="black" d="M99,-71.7C99,-60.85 99,-46.92 99,-36.1"/>
</g>
<!-- n018 -->
<g id="node18" class="node">
<title>n018</title>
<ellipse fill="none" stroke="black" cx="171" cy="-18" rx="27" ry="18"/>
<text text-anchor="start" x="162" y="-15.3" font-family="Times,serif" font-size="14.00">H</text>
<text text-anchor="start" x="172" y="-15.3" font-family="Times,serif" baseline-shift="sub" font-size="14.00">C</text>
</g>
<!-- n009&#45;&#45;n018 -->
<g id="edge17" class="edge">
<title>n009&#45;&#45;n018</title>
<path fill="none" stroke="black" d="M198.65,-72.76C192.83,-61.46 185.11,-46.44 179.3,-35.15"/>
</g>
<!-- n019 -->
<g id="node19" class="node">
<title>n019</title>
<ellipse fill="none" stroke="black" cx="243" cy="-18" rx="27" ry="18"/>
<text text-anchor="start" x="233.5" y="-15.3" font-family="Times,serif" font-size="14.00">H</text>
<text text-anchor="start" x="243.5" y="-15.3" font-family="Times,serif" baseline-shift="sub" font-size="14.00">D</text>
</g>
<!-- n009&#45;&#45;n019 -->
<g id="edge18" class="edge">
<title>n009&#45;&#45;n019</title>
<path fill="none" stroke="black" d="M215.35,-72.76C221.17,-61.46 228.89,-46.44 234.7,-35.15"/>
</g>
<!-- n020 -->
<g id="node20" class="node">
<title>n020</title>
<ellipse fill="none" stroke="black" cx="315" cy="-18" rx="27" ry="18"/>
<text text-anchor="start" x="306" y="-15.3" font-family="Times,serif" font-size="14.00">H</text>
<text text-anchor="start" x="316" y="-15.3" font-family="Times,serif" baseline-shift="sub" font-size="14.00">E</text>
</g>
<!-- n010&#45;&#45;n020 -->
<g id="edge19" class="edge">
<title>n010&#45;&#45;n020</title>
<path fill="none" stroke="black" d="M371.29,-74.5C359.1,-62.48 341.87,-45.49 329.69,-33.49"/>
</g>
<!-- n021 -->
<g id="node21" class="node">
<title>n021</title>
<ellipse fill="none" stroke="black" cx="387" cy="-18" rx="27" ry="18"/>
<text text-anchor="start" x="378.5" y="-15.3" font-family="Times,serif" font-size="14.00">H</text>
<text text-anchor="start" x="388.5" y="-15.3" font-family="Times,serif" baseline-shift="sub" font-size="14.00">F</text>
</g>
<!-- n010&#45;&#45;n021 -->
<g id="edge20" class="edge">
<title>n010&#45;&#45;n021</title>
<path fill="none" stroke="black" d="M386.25,-71.7C386.4,-60.85 386.6,-46.92 386.76,-36.1"/>
</g>
<!-- n022 -->
<g id="node22" class="node">
<title>n022</title>
<ellipse fill="green" stroke="black" cx="459" cy="-18" rx="27" ry="18"/>
<text text-anchor="start" x="449.5" y="-15.3" font-family="Times,serif" font-size="14.00" fill="white">H</text>
<text text-anchor="start" x="459.5" y="-15.3" font-family="Times,serif" baseline-shift="sub" font-size="14.00" fill="white">G</text>
</g>
<!-- n011&#45;&#45;n022 -->
<g id="edge21" class="edge">
<title>n011&#45;&#45;n022</title>
<path fill="none" stroke="black" d="M459,-71.7C459,-60.85 459,-46.92 459,-36.1"/>
</g>
<!-- n023 -->
<g id="node23" class="node">
<title>n023</title>
<ellipse fill="blue" stroke="black" cx="531" cy="-18" rx="27" ry="18"/>
<text text-anchor="start" x="521.5" y="-15.3" font-family="Times,serif" font-size="14.00" fill="white">H</text>
<text text-anchor="start" x="531.5" y="-15.3" font-family="Times,serif" baseline-shift="sub" font-size="14.00" fill="white">H</text>
</g>
<!-- n011&#45;&#45;n023 -->
<g id="edge22" class="edge">
<title>n011&#45;&#45;n023</title>
<path fill="none" stroke="black" d="M473.92,-74.5C486.28,-62.48 503.75,-45.49 516.1,-33.49"/>
</g>
<!-- n024 -->
<g id="node24" class="node">
<title>n024</title>
<ellipse fill="none" stroke="black" cx="603" cy="-18" rx="27" ry="18"/>
<text text-anchor="start" x="596" y="-15.3" font-family="Times,serif" font-size="14.00">H</text>
<text text-anchor="start" x="606" y="-15.3" font-family="Times,serif" baseline-shift="sub" font-size="14.00">I</text>
</g>
<!-- n012&#45;&#45;n024 -->
<g id="edge23" class="edge">
<title>n012&#45;&#45;n024</title>
<path fill="none" stroke="black" d="M660.43,-74.83C648.02,-62.77 630.27,-45.51 617.8,-33.38"/>
</g>
<!-- n025 -->
<g id="node25" class="node">
<title>n025</title>
<ellipse fill="none" stroke="black" cx="675" cy="-18" rx="27" ry="18"/>
<text text-anchor="start" x="667.5" y="-15.3" font-family="Times,serif" font-size="14.00">H</text>
<text text-anchor="start" x="677.5" y="-15.3" font-family="Times,serif" baseline-shift="sub" font-size="14.00">J</text>
</g>
<!-- n012&#45;&#45;n025 -->
<g id="edge24" class="edge">
<title>n012&#45;&#45;n025</title>
<path fill="none" stroke="black" d="M675,-71.7C675,-60.85 675,-46.92 675,-36.1"/>
</g>
<!-- n026 -->
<g id="node26" class="node">
<title>n026</title>
<ellipse fill="none" stroke="black" cx="747" cy="-18" rx="27" ry="18"/>
<text text-anchor="start" x="737.5" y="-15.3" font-family="Times,serif" font-size="14.00">H</text>
<text text-anchor="start" x="747.5" y="-15.3" font-family="Times,serif" baseline-shift="sub" font-size="14.00">K</text>
</g>
<!-- n013&#45;&#45;n026 -->
<g id="edge25" class="edge">
<title>n013&#45;&#45;n026</title>
<path fill="none" stroke="black" d="M747,-71.7C747,-60.85 747,-46.92 747,-36.1"/>
</g>
<!-- n027 -->
<g id="node27" class="node">
<title>n027</title>
<ellipse fill="none" stroke="black" cx="819" cy="-18" rx="27" ry="18"/>
<text text-anchor="start" x="810" y="-15.3" font-family="Times,serif" font-size="14.00">H</text>
<text text-anchor="start" x="820" y="-15.3" font-family="Times,serif" baseline-shift="sub" font-size="14.00">L</text>
</g>
<!-- n013&#45;&#45;n027 -->
<g id="edge26" class="edge">
<title>n013&#45;&#45;n027</title>
<path fill="none" stroke="black" d="M761.92,-74.5C774.28,-62.48 791.75,-45.49 804.1,-33.49"/>
</g>
<!-- n028 -->
<g id="node28" class="node">
<title>n028</title>
<ellipse fill="none" stroke="black" cx="891" cy="-18" rx="27" ry="18"/>
<text text-anchor="start" x="880.5" y="-15.3" font-family="Times,serif" font-size="14.00">H</text>
<text text-anchor="start" x="890.5" y="-15.3" font-family="Times,serif" baseline-shift="sub" font-size="14.00">M</text>
</g>
<!-- n014&#45;&#45;n028 -->
<g id="edge27" class="edge">
<title>n014&#45;&#45;n028</title>
<path fill="none" stroke="black" d="M916.94,-72.41C911.52,-61.25 904.41,-46.6 899,-35.47"/>
</g>
<!-- n029 -->
<g id="node29" class="node">
<title>n029</title>
<ellipse fill="none" stroke="black" cx="963" cy="-18" rx="27" ry="18"/>
<text text-anchor="start" x="953.5" y="-15.3" font-family="Times,serif" font-size="14.00">H</text>
<text text-anchor="start" x="963.5" y="-15.3" font-family="Times,serif" baseline-shift="sub" font-size="14.00">N</text>
</g>
<!-- n014&#45;&#45;n029 -->
<g id="edge28" class="edge">
<title>n014&#45;&#45;n029</title>
<path fill="none" stroke="black" d="M933.81,-72.76C939.95,-61.46 948.11,-46.44 954.23,-35.15"/>
</g>
<!-- n030 -->
<g id="node30" class="node">
<title>n030</title>
<ellipse fill="none" stroke="black" cx="1035" cy="-18" rx="27" ry="18"/>
<text text-anchor="start" x="1025.5" y="-15.3" font-family="Times,serif" font-size="14.00">H</text>
<text text-anchor="start" x="1035.5" y="-15.3" font-family="Times,serif" baseline-shift="sub" font-size="14.00">O</text>
</g>
<!-- n015&#45;&#45;n030 -->
<g id="edge29" class="edge">
<title>n015&#45;&#45;n030</title>
<path fill="none" stroke="black" d="M1035,-71.7C1035,-60.85 1035,-46.92 1035,-36.1"/>
</g>
<!-- n031 -->
<g id="node31" class="node">
<title>n031</title>
<ellipse fill="none" stroke="black" cx="1107" cy="-18" rx="27" ry="18"/>
<text text-anchor="start" x="1098.5" y="-15.3" font-family="Times,serif" font-size="14.00">H</text>
<text text-anchor="start" x="1108.5" y="-15.3" font-family="Times,serif" baseline-shift="sub" font-size="14.00">P</text>
</g>
<!-- n015&#45;&#45;n031 -->
<g id="edge30" class="edge">
<title>n015&#45;&#45;n031</title>
<path fill="none" stroke="black" d="M1049.92,-74.5C1062.28,-62.48 1079.75,-45.49 1092.1,-33.49"/>
</g>
</g>
</svg>
